<svg data-noselect="" viewBox="0 0 800 600" width="1600" height="1200" preserveAspectRatio="none" version="1.1" xmlns="http://www.w3.org/2000/svg" xmlns:xlink="http://www.w3.org/1999/xlink" class="svg-canvas"><defs></defs> <g id="background" data-noselect=""><rect fill="#01005a" width="800" height="600" data-noselect=""></rect> <!----></g> <g id="shape_x8zW4L4qbu" transform="translate(120,222.17284257933) rotate(0,105.63310498712,63.780578669775) scale(1,1)" filter="" style="opacity: 1;"><g><svg version="1.1" id="图层_1" xmlns="http://www.w3.org/2000/svg" xmlns:xlink="http://www.w3.org/1999/xlink" x="0px" y="0px" width="211.26620997423" height="127.56115733955" viewBox="0 0 284.7 171.9" enable-background="new 0 0 284.7 171.9" xml:space="preserve" class="style-removed" preserveAspectRatio="none" data-parent="shape_x8zW4L4qbu">
<g>
	<path fill="#afe6e9" d="M110.3,82.1c-33.1,0-80.3-3.4-110.3-5.9v19.5c30.1-2.8,77.3-6.7,110.3-6.7c52.1,0,148.4,0,148.4,0v-7
		C258.7,82.1,162.4,82.1,110.3,82.1z" stroke-width="0"></path>
	<path fill="#0e39ef" d="M38.7,43.2v21.2c0,0,76.6,14.7,103.6,14.7s97.3,0,97.3,0v-5.3c0,0-60.3,0-96.9,0S38.7,43.2,38.7,43.2z" stroke-width="0"></path>
	<path fill="#f5762d" d="M163.9,65.6c-23,0-103.1-44.5-139.7-65.6v22.9C57.3,39,127.1,70.4,166.6,70.4c53.3,0,118.1,0,118.1,0v-4.9
		C284.7,65.6,194,65.6,163.9,65.6z" stroke-width="0"></path>
	<path fill="#e865b0" d="M38.7,128.5v-21.2c0,0,76.6-14.7,103.6-14.7s90.2,0,90.2,0V98c0,0-53.2,0-89.8,0S38.7,128.5,38.7,128.5z" stroke-width="0"></path>
	<path fill="#02e6cb" d="M166.6,101.5c-39.6,0-109.3,31.4-142.5,47.5v22.9c36.7-21.1,116.8-65.6,139.7-65.6c30.1,0,48.6,0,48.6,0
		v-4.9C212.4,101.5,192.1,101.5,166.6,101.5z" stroke-width="0"></path>
</g>
</svg></g></g><g id="shape_2LnkwGcya2" transform="translate(215.49676463913,301.15180371225995) rotate(0,162.1,65.9) scale(1,1)" filter="" style="opacity: 1;"><g><svg xmlns="http://www.w3.org/2000/svg" version="1.1" xmlns:xlink="http://www.w3.org/1999/xlink" width="360.40000000000003" height="131.8" viewBox="0 0 360.40000000000003 131.8"><g data-width="286.975886136267" transform="translate(18.1, 0)"><path d="M12.69-1.95L12.69 0L4.43 0Q3.42 0 2.58-0.50Q1.74-1.00 1.24-1.85Q0.74-2.70 0.74-3.69L0.74-3.69L0.74-8.78Q0.74-9.77 1.24-10.62Q1.74-11.46 2.58-11.96Q3.42-12.45 4.43-12.45L4.43-12.45L12.69-12.45L12.69-10.52L5.41-10.52Q4.69-10.52 4.18-10.02Q3.67-9.52 3.67-8.78L3.67-8.78L3.67-3.69Q3.67-2.97 4.18-2.46Q4.69-1.95 5.41-1.95L5.41-1.95L12.69-1.95Z" transform="translate(0 72.4) " fill="#afe6e9" stroke="#afe6e9" stroke-width="0.03" data-glyph-w="14.234375530298427" data-glyph-h="21.720000000000002" data-glyph-ascender="18.1" data-glyph-descender="-3.62"></path><path d="M0.74-9.63Q0.74-10.39 1.12-11.04Q1.50-11.69 2.15-12.07Q2.81-12.45 3.57-12.45L3.57-12.45L9.85-12.45Q10.62-12.45 11.28-12.07Q11.93-11.69 12.31-11.04Q12.69-10.39 12.69-9.63L12.69-9.63L12.69-2.84Q12.69-2.08 12.31-1.42Q11.93-0.76 11.28-0.38Q10.62 0 9.85 0L9.85 0L3.57 0Q2.81 0 2.15-0.39Q1.50-0.78 1.12-1.43Q0.74-2.08 0.74-2.84L0.74-2.84L0.74-9.63ZM8.33-1.95Q8.92-1.95 9.35-2.38Q9.77-2.81 9.77-3.40L9.77-3.40L9.77-9.05Q9.77-9.67 9.35-10.09Q8.92-10.52 8.33-10.52L8.33-10.52L5.10-10.52Q4.49-10.52 4.06-10.09Q3.64-9.67 3.64-9.05L3.64-9.05L3.64-3.40Q3.64-2.81 4.06-2.38Q4.49-1.95 5.10-1.95L5.10-1.95L8.33-1.95Z" transform="translate(14.234375530298427 72.4) " fill="#afe6e9" stroke="#afe6e9" stroke-width="0.03" data-glyph-w="14.234375530298427" data-glyph-h="21.720000000000002" data-glyph-ascender="18.1" data-glyph-descender="-3.62"></path><path d="M11.29-5.25L2.15-5.25L2.15-7.19L11.29-7.19L11.29-5.25Z" transform="translate(28.468751060596855 72.4) " fill="#afe6e9" stroke="#afe6e9" stroke-width="0.03" data-glyph-w="14.270575530298428" data-glyph-h="21.720000000000002" data-glyph-ascender="18.1" data-glyph-descender="-3.62"></path><path d="M11.69-6.37Q12.31-5.88 12.66-5.16Q13.01-4.43 13.01-3.60L13.01-3.60Q13.01-2.62 12.53-1.80Q12.04-0.98 11.21-0.49Q10.39 0 9.41 0L9.41 0L0.74 0L0.74-12.45L9.09-12.45Q10.06-12.45 10.89-11.96Q11.71-11.48 12.20-10.65Q12.69-9.83 12.69-8.85L12.69-8.85Q12.69-8.15 12.43-7.51Q12.16-6.88 11.69-6.37L11.69-6.37ZM3.64-10.52L3.64-7.19L8.13-7.19Q8.81-7.19 9.29-7.67Q9.77-8.16 9.77-8.85L9.77-8.85Q9.77-9.54 9.29-10.03Q8.81-10.52 8.13-10.52L8.13-10.52L3.64-10.52ZM10.10-3.60Q10.10-4.29 9.62-4.77Q9.14-5.25 8.45-5.25L8.45-5.25L3.64-5.25L3.64-1.95L8.45-1.95Q9.14-1.95 9.62-2.43Q10.10-2.91 10.10-3.60L10.10-3.60Z" transform="translate(42.73932659089528 72.4) " fill="#afe6e9" stroke="#afe6e9" stroke-width="0.03" data-glyph-w="14.560175530298428" data-glyph-h="21.720000000000002" data-glyph-ascender="18.1" data-glyph-descender="-3.62"></path><path d="M13.01-8.42Q13.01-7.28 12.45-6.34Q11.89-5.39 10.93-4.87L10.93-4.87L13.01 0L10.12 0L8.24-4.36L3.66-4.36L3.66 0L0.74 0L0.74-12.45L8.96-12.45Q10.06-12.45 11.00-11.91Q11.93-11.37 12.47-10.44Q13.01-9.52 13.01-8.42L13.01-8.42ZM3.66-10.52L3.66-6.30L8.00-6.30Q8.87-6.30 9.49-6.91Q10.12-7.53 10.12-8.42L10.12-8.42Q10.12-9.29 9.49-9.90Q8.87-10.52 8.00-10.52L8.00-10.52L3.66-10.52Z" transform="translate(57.29950212119371 72.4) " fill="#afe6e9" stroke="#afe6e9" stroke-width="0.03" data-glyph-w="14.252475530298428" data-glyph-h="21.720000000000002" data-glyph-ascender="18.1" data-glyph-descender="-3.62"></path><path d="M13.90 0L11.00 0L7.02-9.45L3.84-1.94L7.40-1.94L8.31 0L0.13 0L5.41-12.45L8.62-12.45L13.90 0Z" transform="translate(71.55197765149214 72.4) " fill="#afe6e9" stroke="#afe6e9" stroke-width="0.03" data-glyph-w="14.831675530298428" data-glyph-h="21.720000000000002" data-glyph-ascender="18.1" data-glyph-descender="-3.62"></path><path d="M9.79-3.98L9.79-12.45L12.69-12.45L12.69 0L9.79 0L3.64-8.47L3.64 0L0.74 0L0.74-12.45L3.64-12.45L9.79-3.98Z" transform="translate(86.38365318179056 72.4) " fill="#afe6e9" stroke="#afe6e9" stroke-width="0.03" data-glyph-w="14.234375530298427" data-glyph-h="21.720000000000002" data-glyph-ascender="18.1" data-glyph-descender="-3.62"></path><path d="M0.74-12.45L8.36-12.45Q9.54-12.45 10.53-11.87Q11.53-11.29 12.11-10.30Q12.69-9.30 12.69-8.13L12.69-8.13L12.69-4.33Q12.69-3.15 12.11-2.15Q11.53-1.16 10.53-0.58Q9.54 0 8.36 0L8.36 0L0.74 0L0.74-12.45ZM7.40-1.95Q8.04-1.95 8.59-2.27Q9.14-2.59 9.46-3.14Q9.77-3.69 9.77-4.33L9.77-4.33L9.77-8.13Q9.77-8.78 9.46-9.33Q9.14-9.88 8.59-10.20Q8.04-10.52 7.40-10.52L7.40-10.52L3.64-10.52L3.64-1.95L7.40-1.95Z" transform="translate(100.61802871208899 72.4) " fill="#afe6e9" stroke="#afe6e9" stroke-width="0.03" data-glyph-w="14.234375530298427" data-glyph-h="21.720000000000002" data-glyph-ascender="18.1" data-glyph-descender="-3.62"></path><path d="M5.95-10.52Q5.34-10.52 4.81-10.21Q4.27-9.90 3.95-9.37Q3.64-8.83 3.64-8.20L3.64-8.20L3.64-7.20L12.69-7.20L12.69-5.27L3.64-5.27L3.64-4.27Q3.64-3.64 3.95-3.10Q4.27-2.57 4.81-2.26Q5.34-1.95 5.95-1.95L5.95-1.95L12.69-1.95L12.69 0L5.00 0Q3.84 0 2.86-0.58Q1.88-1.16 1.31-2.14Q0.74-3.11 0.74-4.27L0.74-4.27L0.74-8.20Q0.74-9.36 1.31-10.34Q1.88-11.31 2.86-11.88Q3.84-12.45 5.00-12.45L5.00-12.45L12.69-12.45L12.69-10.52L5.95-10.52Z" transform="translate(114.85240424238741 72.4) " fill="#afe6e9" stroke="#afe6e9" stroke-width="0.03" data-glyph-w="14.234375530298427" data-glyph-h="21.720000000000002" data-glyph-ascender="18.1" data-glyph-descender="-3.62"></path><path d="M0.74-12.45L8.36-12.45Q9.54-12.45 10.53-11.87Q11.53-11.29 12.11-10.30Q12.69-9.30 12.69-8.13L12.69-8.13L12.69-4.33Q12.69-3.15 12.11-2.15Q11.53-1.16 10.53-0.58Q9.54 0 8.36 0L8.36 0L0.74 0L0.74-12.45ZM7.40-1.95Q8.04-1.95 8.59-2.27Q9.14-2.59 9.46-3.14Q9.77-3.69 9.77-4.33L9.77-4.33L9.77-8.13Q9.77-8.78 9.46-9.33Q9.14-9.88 8.59-10.20Q8.04-10.52 7.40-10.52L7.40-10.52L3.64-10.52L3.64-1.95L7.40-1.95Z" transform="translate(129.08677977268584 72.4) " fill="#afe6e9" stroke="#afe6e9" stroke-width="0.03" data-glyph-w="14.234375530298427" data-glyph-h="21.720000000000002" data-glyph-ascender="18.1" data-glyph-descender="-3.62"></path><path d="" transform="translate(143.32115530298427 72.4) " fill="#afe6e9" stroke="#afe6e9" stroke-width="0.03" data-glyph-w="8.007975530298426" data-glyph-h="18.1" data-glyph-ascender="15.928" data-glyph-descender="-2.172"></path><path d="M9.79-3.98L9.79-12.45L12.69-12.45L12.69 0L9.79 0L3.64-8.47L3.64 0L0.74 0L0.74-12.45L3.64-12.45L9.79-3.98Z" transform="translate(151.3291308332827 72.4) " fill="#afe6e9" stroke="#afe6e9" stroke-width="0.03" data-glyph-w="14.234375530298427" data-glyph-h="21.720000000000002" data-glyph-ascender="18.1" data-glyph-descender="-3.62"></path><path d="M5.95-10.52Q5.34-10.52 4.81-10.21Q4.27-9.90 3.95-9.37Q3.64-8.83 3.64-8.20L3.64-8.20L3.64-6.23L12.69-6.23L12.69-4.29L3.64-4.29L3.64 0L0.74 0L0.74-8.20Q0.74-9.36 1.31-10.34Q1.88-11.31 2.86-11.88Q3.84-12.45 5.00-12.45L5.00-12.45L12.69-12.45L12.69-10.52L5.95-10.52Z" transform="translate(165.56350636358113 72.4) " fill="#afe6e9" stroke="#afe6e9" stroke-width="0.03" data-glyph-w="13.836175530298428" data-glyph-h="21.720000000000002" data-glyph-ascender="18.1" data-glyph-descender="-3.62"></path><path d="M0.20-12.47L12.16-12.47L12.16-10.52L7.64-10.52L7.64 0L4.72 0L4.72-10.52L0.20-10.52L0.20-12.47Z" transform="translate(179.39968189387955 72.4) " fill="#afe6e9" stroke="#afe6e9" stroke-width="0.03" data-glyph-w="13.166475530298428" data-glyph-h="21.720000000000002" data-glyph-ascender="18.1" data-glyph-descender="-3.62"></path><path d="" transform="translate(192.56615742417796 72.4) " fill="#afe6e9" stroke="#afe6e9" stroke-width="0.03" data-glyph-w="8.007975530298426" data-glyph-h="18.1" data-glyph-ascender="15.928" data-glyph-descender="-2.172"></path><path d="M7.71-6.62L11.57-12.47L14.48-12.47L14.48 0L11.57 0L11.57-8.11L9.16-4.45L6.28-4.45L3.75-8.20L3.75 0L0.83 0L0.83-12.47L3.75-12.47L7.71-6.62Z" transform="translate(200.5741329544764 72.4) " fill="#afe6e9" stroke="#afe6e9" stroke-width="0.03" data-glyph-w="16.116775530298426" data-glyph-h="21.720000000000002" data-glyph-ascender="18.1" data-glyph-descender="-3.62"></path><path d="M13.90 0L11.00 0L7.02-9.45L3.84-1.94L7.40-1.94L8.31 0L0.13 0L5.41-12.45L8.62-12.45L13.90 0Z" transform="translate(216.6909084847748 72.4) " fill="#afe6e9" stroke="#afe6e9" stroke-width="0.03" data-glyph-w="14.831675530298428" data-glyph-h="21.720000000000002" data-glyph-ascender="18.1" data-glyph-descender="-3.62"></path><path d="M13.01-8.42Q13.01-7.28 12.45-6.34Q11.89-5.39 10.93-4.87L10.93-4.87L13.01 0L10.12 0L8.24-4.36L3.66-4.36L3.66 0L0.74 0L0.74-12.45L8.96-12.45Q10.06-12.45 11.00-11.91Q11.93-11.37 12.47-10.44Q13.01-9.52 13.01-8.42L13.01-8.42ZM3.66-10.52L3.66-6.30L8.00-6.30Q8.87-6.30 9.49-6.91Q10.12-7.53 10.12-8.42L10.12-8.42Q10.12-9.29 9.49-9.90Q8.87-10.52 8.00-10.52L8.00-10.52L3.66-10.52Z" transform="translate(231.52258401507325 72.4) " fill="#afe6e9" stroke="#afe6e9" stroke-width="0.03" data-glyph-w="14.252475530298428" data-glyph-h="21.720000000000002" data-glyph-ascender="18.1" data-glyph-descender="-3.62"></path><path d="M0.74-12.45L3.66-12.45L3.66 0L0.74 0L0.74-12.45ZM9.19-12.45L12.71-12.45L7.15-6.23L12.71 0L9.19 0L3.66-6.23L9.19-12.45Z" transform="translate(245.77505954537168 72.4) " fill="#afe6e9" stroke="#afe6e9" stroke-width="0.03" data-glyph-w="13.799975530298427" data-glyph-h="21.720000000000002" data-glyph-ascender="18.1" data-glyph-descender="-3.62"></path><path d="M5.95-10.52Q5.34-10.52 4.81-10.21Q4.27-9.90 3.95-9.37Q3.64-8.83 3.64-8.20L3.64-8.20L3.64-7.20L12.69-7.20L12.69-5.27L3.64-5.27L3.64-4.27Q3.64-3.64 3.95-3.10Q4.27-2.57 4.81-2.26Q5.34-1.95 5.95-1.95L5.95-1.95L12.69-1.95L12.69 0L5.00 0Q3.84 0 2.86-0.58Q1.88-1.16 1.31-2.14Q0.74-3.11 0.74-4.27L0.74-4.27L0.74-8.20Q0.74-9.36 1.31-10.34Q1.88-11.31 2.86-11.88Q3.84-12.45 5.00-12.45L5.00-12.45L12.69-12.45L12.69-10.52L5.95-10.52Z" transform="translate(259.5750350756701 72.4) " fill="#afe6e9" stroke="#afe6e9" stroke-width="0.03" data-glyph-w="14.234375530298427" data-glyph-h="21.720000000000002" data-glyph-ascender="18.1" data-glyph-descender="-3.62"></path><path d="M0.20-12.47L12.16-12.47L12.16-10.52L7.64-10.52L7.64 0L4.72 0L4.72-10.52L0.20-10.52L0.20-12.47Z" transform="translate(273.80941060596854 72.4) " fill="#afe6e9" stroke="#afe6e9" stroke-width="0.03" data-glyph-w="13.166475530298428" data-glyph-h="21.720000000000002" data-glyph-ascender="18.1" data-glyph-descender="-3.62"></path></g></svg></g></g><g id="shape_AXvYduxcGO" transform="translate(169.87554382659,109.15614992268996) rotate(0,286.14,221.42000000000002) scale(1,1)" filter="" style="opacity: 1;"><g><svg xmlns="http://www.w3.org/2000/svg" version="1.1" xmlns:xlink="http://www.w3.org/1999/xlink" width="695.56" height="442.84000000000003" viewBox="0 0 695.56 442.84000000000003"><g data-width="447.8413651197113" transform="translate(61.64, 0)"><path d="M22.87-7.34L35.44-7.34L35.44 0L21.08 0Q17.01 0 14.86-0.43L14.86-0.43Q7.27-1.91 4.07-8.88L4.07-8.88Q1.97-13.56 1.97-20.46L1.97-20.46Q1.97-28.72 5.18-33.90L5.18-33.90Q7.52-37.66 11.43-39.39Q15.35-41.11 21.51-41.11L21.51-41.11L35.44-41.11L35.44-33.78L22.50-33.78Q16.64-33.78 13.93-30.64L13.93-30.64Q11.65-28.05 11.65-21.27L11.65-21.27Q11.65-12.14 15.16-9.31L15.16-9.31Q17.63-7.34 22.87-7.34L22.87-7.34Z" transform="translate(0 242.92000000000002) " fill="#afe6e9" stroke="#afe6e9" stroke-width="0.103" data-glyph-w="38.986931374519216" data-glyph-h="61.64" data-glyph-ascender="52.94876" data-glyph-descender="-8.69124"></path><path d="M22.25-41.36L22.25-41.36Q28.42-41.36 33.10-39.26L33.10-39.26Q38.59-36.74 40.81-30.82L40.81-30.82Q42.53-26.20 42.53-19.97L42.53-19.97Q42.53-13.68 40.44-9.06L40.44-9.06Q37.79-3.58 32.30-1.36L32.30-1.36Q28.23 0.25 22.93 0.25L22.93 0.25Q15.96 0.25 10.85-2.34L10.85-2.34Q6.53-4.50 4.25-9.12Q1.97-13.75 1.97-20.34L1.97-20.34Q1.97-32.11 7.83-37.11L7.83-37.11Q12.76-41.30 22.25-41.36ZM22.31-34.46L22.31-34.46Q16.27-34.46 13.68-30.51L13.68-30.51Q11.59-27.43 11.59-20.59L11.59-20.59Q11.59-13.38 14.18-9.99L14.18-9.99Q16.77-6.66 22.38-6.66L22.38-6.66Q27.80-6.66 30.36-10.05Q32.92-13.44 32.92-20.53L32.92-20.53Q32.92-27.00 30.82-30.39L30.82-30.39Q28.42-34.40 22.31-34.46Z" transform="translate(38.986931374519216 242.92000000000002) " fill="#afe6e9" stroke="#afe6e9" stroke-width="0.103" data-glyph-w="46.13717137451922" data-glyph-h="61.64" data-glyph-ascender="52.94876" data-glyph-descender="-8.69124"></path><path d="M29.34 0L12.57-30.14L12.57 0L4.19 0L4.19-41.11L15.41-41.11L31.74-10.48L31.74-41.11L40.07-41.11L40.07 0L29.34 0Z" transform="translate(85.12410274903843 242.92000000000002) " fill="#afe6e9" stroke="#afe6e9" stroke-width="0.103" data-glyph-w="45.89061137451922" data-glyph-h="61.64" data-glyph-ascender="52.94876" data-glyph-descender="-8.69124"></path><path d="M12.39-24.29L36.92-24.29L36.92-16.95L12.39-16.95L12.39 0L3.70 0L3.70-21.45Q3.76-30.70 5.42-33.59L5.42-33.59Q7.52-37.66 11.50-39.39Q15.47-41.11 22.68-41.11L22.68-41.11L36.92-41.11L36.92-33.78L23.79-33.78Q17.69-33.66 15.96-32.79L15.96-32.79Q12.51-31.37 12.39-26.51L12.39-26.51L12.39-24.29Z" transform="translate(131.01471412355764 242.92000000000002) " fill="#afe6e9" stroke="#afe6e9" stroke-width="0.103" data-glyph-w="40.83613137451922" data-glyph-h="61.64" data-glyph-ascender="52.94876" data-glyph-descender="-8.69124"></path><path d="M13.31 0L13.31-33.78L0.25-33.78L0.25-41.11L35.69-41.11L35.69-33.78L22.07-33.78L22.07 0L13.31 0Z" transform="translate(171.85084549807686 242.92000000000002) " fill="#afe6e9" stroke="#afe6e9" stroke-width="0.103" data-glyph-w="37.63085137451922" data-glyph-h="61.64" data-glyph-ascender="52.94876" data-glyph-descender="-8.69124"></path><path d="M26.94 0L4.19 0L4.19-41.11L27.43-41.11Q32.92-41.11 35.38-39.82L35.38-39.82Q38.28-38.40 39.76-35.07L39.76-35.07Q40.81-32.79 40.81-30.33L40.81-30.33Q40.81-27.12 39.11-24.35Q37.42-21.57 34.83-20.53L34.83-20.53Q40.81-17.81 40.81-10.85L40.81-10.85Q40.81-6.84 38.89-4.13L38.89-4.13Q37.23-1.79 34.64-0.89Q32.05 0 26.94 0L26.94 0ZM12.94-33.78L12.94-24.22L24.84-24.22Q26.75-24.22 27.58-24.41Q28.42-24.59 29.22-25.21L29.22-25.21Q31.13-26.69 31.13-29.28L31.13-29.28Q31.13-31.74 29.34-32.92L29.34-32.92Q28.05-33.78 25.03-33.78L25.03-33.78L12.94-33.78ZM12.94-16.89L12.94-7.34L24.84-7.34Q26.75-7.34 27.61-7.52Q28.48-7.71 29.22-8.32L29.22-8.32Q31.13-9.80 31.13-12.39L31.13-12.39Q31.13-14.86 29.34-16.03L29.34-16.03Q28.05-16.89 25.03-16.89L25.03-16.89L12.94-16.89Z" transform="translate(209.48169687259607 242.92000000000002) " fill="#afe6e9" stroke="#afe6e9" stroke-width="0.103" data-glyph-w="44.65781137451922" data-glyph-h="61.64" data-glyph-ascender="52.94876" data-glyph-descender="-8.69124"></path><path d="M19.97-15.59L12.94-15.59L12.94 0L4.19 0L4.19-41.11L24.29-41.11Q32.92-41.11 36.31-38.89L36.31-38.89Q38.65-37.42 39.91-34.98Q41.18-32.55 41.18-29.65L41.18-29.65Q41.18-23.79 38.22-20.59L38.22-20.59Q36.37-18.68 33.35-17.69L33.35-17.69Q35.75-16.83 36.98-15.87Q38.22-14.92 39.20-13.07L39.20-13.07Q39.94-11.59 40.28-10.23Q40.62-8.88 40.81-6.23L40.81-6.23Q41.18-1.79 41.79 0L41.79 0L31.99 0Q31.56-1.42 31.07-5.86L31.07-5.86Q30.76-9.43 29.80-11.34Q28.85-13.25 26.94-14.36L26.94-14.36Q24.53-15.66 19.97-15.59L19.97-15.59ZM12.94-33.78L12.94-22.93L25.21-22.93Q28.29-22.93 29.59-23.85L29.59-23.85Q31.56-25.21 31.56-28.60L31.56-28.60Q31.56-32.36 28.60-33.41L28.60-33.41Q27.55-33.78 25.21-33.78L25.21-33.78L12.94-33.78Z" transform="translate(254.1395082471153 242.92000000000002) " fill="#afe6e9" stroke="#afe6e9" stroke-width="0.103" data-glyph-w="45.644051374519215" data-glyph-h="61.64" data-glyph-ascender="52.94876" data-glyph-descender="-8.69124"></path><path d="M12.94 0L4.19 0L4.19-41.11L12.94-41.11L12.94 0Z" transform="translate(299.7835596216345 242.92000000000002) " fill="#afe6e9" stroke="#afe6e9" stroke-width="0.103" data-glyph-w="18.70737137451922" data-glyph-h="61.64" data-glyph-ascender="52.94876" data-glyph-descender="-8.69124"></path><path d="M4.19 0L4.19-41.11L21.64-41.11Q28.17-41.11 31.74-39.82L31.74-39.82Q38.34-37.42 40.56-31.00L40.56-31.00Q42.22-26.07 42.22-20.46L42.22-20.46Q42.22-14.92 40.62-9.99L40.62-9.99Q39.02-4.93 35.32-2.53L35.32-2.53Q32.98-1.05 30.17-0.52Q27.37 0 21.64 0L21.64 0L4.19 0ZM21.64-33.78L12.94-33.78L12.94-7.34L21.64-7.34Q27.37-7.34 29.59-9.86L29.59-9.86Q30.94-11.47 31.78-14.36Q32.61-17.26 32.61-20.53L32.61-20.53Q32.61-24.16 31.62-27.18Q30.64-30.20 29.03-31.68L29.03-31.68Q26.69-33.78 21.64-33.78L21.64-33.78Z" transform="translate(318.4909309961537 242.92000000000002) " fill="#afe6e9" stroke="#afe6e9" stroke-width="0.103" data-glyph-w="45.767331374519216" data-glyph-h="61.64" data-glyph-ascender="52.94876" data-glyph-descender="-8.69124"></path><path d="M19.29-17.07L19.29-24.41L39.45-24.41L39.45 0L21.08 0Q16.33 0 13.53-0.71Q10.73-1.42 8.44-3.21L8.44-3.21Q1.97-8.20 1.97-20.40L1.97-20.40Q1.97-28.35 5.05-33.66L5.05-33.66Q7.34-37.54 11.28-39.33Q15.23-41.11 21.51-41.11L21.51-41.11L39.45-41.11L39.45-33.78L22.50-33.78Q17.01-33.78 14.55-31.37L14.55-31.37Q11.59-28.54 11.59-21.20L11.59-21.20Q11.59-17.44 12.36-14.42Q13.13-11.40 14.49-9.92L14.49-9.92Q15.66-8.57 17.72-7.95Q19.79-7.34 22.81-7.34L22.81-7.34L30.76-7.34L30.76-17.07L19.29-17.07Z" transform="translate(364.2582623706729 242.92000000000002) " fill="#afe6e9" stroke="#afe6e9" stroke-width="0.103" data-glyph-w="44.22633137451922" data-glyph-h="61.64" data-glyph-ascender="52.94876" data-glyph-descender="-8.69124"></path><path d="M20.28-41.11L35.01-41.11L35.01-33.78L23.61-33.78Q19.17-33.78 17.14-33.16Q15.10-32.55 13.75-30.76L13.75-30.76Q12.82-29.53 12.48-28.29Q12.14-27.06 11.90-24.10L11.90-24.10L35.01-24.10L35.01-16.77L11.90-16.77Q12.39-11.47 15.04-9.40Q17.69-7.34 24.04-7.34L24.04-7.34L35.01-7.34L35.01 0L23.61 0Q18.99 0 15.47-0.55L15.47-0.55Q9.92-1.48 6.66-5.42L6.66-5.42Q1.97-11.10 1.97-20.77L1.97-20.77Q1.97-31.50 8.57-37.48L8.57-37.48Q10.85-39.51 13.41-40.31Q15.96-41.11 20.28-41.11L20.28-41.11Z" transform="translate(408.4845937451921 242.92000000000002) " fill="#afe6e9" stroke="#afe6e9" stroke-width="0.103" data-glyph-w="39.35677137451922" data-glyph-h="61.64" data-glyph-ascender="52.94876" data-glyph-descender="-8.69124"></path></g></svg></g></g></svg>